# xmcd CD database file
#
# Track frame offsets:
#	150
#	20472
#	39695
#
# Disc length: 628 seconds
#
# Revision: 1
# Processed by: cddbd v1.5.2PL0 Copyright (c) Steve Scherf et al.
# Submitted via: CDex 1.70beta2
#
DISCID=1d027203
DTITLE=國府田マリ子 - 地球の想い 
DYEAR=2003
DGENRE=seiyu
TTITLE0=地球の想い -ほしの想い-
TTITLE1=雨上がりの朝に
TTITLE2=せつな。
EXTD=YEAR: 2003
EXTT0=
EXTT1=
EXTT2=
PLAYORDER=
